{"glyphs":{"$":{"x_min":0,"x_max":649,"ha":649,"o":"m 296 -117 l 296 -9 q 202 0 144 61 q 78 131 78 225 l 171 269 l 176 269 l 176 194 q 176 135 211 94 q 245 55 296 46 l 296 368 q 225 376 171 425 q 122 469 122 553 q 122 651 183 700 q 230 739 296 746 l 296 830 l 348 854 l 353 854 l 353 746 q 419 739 467 700 q 527 651 527 565 l 435 521 l 430 521 l 430 583 q 430 639 398 667 q 378 684 353 690 l 353 454 q 451 448 505 399 q 571 340 571 230 q 571 130 505 61 q 447 0 353 -9 l 353 -93 l 301 -117 z m 296 457 l 296 690 q 268 684 249 664 q 220 633 220 560 q 220 512 242 487 q 263 464 296 457 z m 353 365 l 353 46 q 404 55 438 94 q 473 134 473 229 q 473 287 445 321 q 413 358 353 365 z"},"<":{"x_min":0,"x_max":653,"ha":653,"o":"m 73 324 l 73 329 l 113 414 l 532 593 l 556 543 l 556 538 l 180 384 l 556 225 l 556 220 l 516 136 z"},"'":{"x_min":0,"x_max":228,"ha":228,"o":"m 149 757 l 154 757 l 154 521 l 78 484 l 73 484 l 73 721 z"},"=":{"x_min":0,"x_max":593,"ha":593,"o":"m 73 413 l 73 418 l 113 502 l 520 502 l 520 497 l 480 413 z m 73 235 l 73 240 l 113 324 l 520 324 l 520 319 l 480 235 z"},"a":{"x_min":0,"x_max":518,"ha":518,"o":"m 444 24 l 352 -20 l 347 -20 l 347 32 q 308 -10 242 -10 q 150 -10 100 45 q 49 101 49 176 q 49 254 104 309 q 157 361 242 361 q 302 361 347 320 q 347 406 316 450 q 286 493 242 493 l 123 493 l 123 498 l 146 547 l 242 547 q 327 547 384 492 q 444 433 444 352 z m 145 176 q 145 100 171 71 q 196 44 242 44 q 291 44 316 72 q 344 102 344 178 q 344 250 314 280 q 285 308 242 308 q 196 308 170 279 q 145 250 145 176 z"},"L":{"x_min":0,"x_max":532,"ha":532,"o":"m 98 0 l 98 713 l 190 757 l 195 757 l 195 54 l 530 54 l 530 49 l 507 0 z"},"3":{"x_min":0,"x_max":649,"ha":649,"o":"m 78 234 l 171 278 l 176 278 l 176 200 q 176 136 211 94 q 253 44 325 44 q 395 44 438 94 q 473 134 473 229 q 473 314 445 348 q 405 394 324 394 q 251 394 226 362 l 397 684 l 122 684 l 122 688 l 145 737 l 528 737 l 361 444 q 447 444 504 393 q 571 334 571 230 q 571 131 505 61 q 438 -10 325 -10 q 211 -10 144 61 q 78 131 78 234 z"},"J":{"x_min":0,"x_max":630,"ha":630,"o":"m 39 225 l 132 269 l 137 269 l 137 200 q 137 136 172 94 q 215 44 286 44 q 356 44 399 94 q 435 135 435 200 l 435 684 l 155 684 l 155 688 l 178 737 l 532 737 l 532 234 q 532 129 466 61 q 397 -10 286 -10 q 176 -10 105 61 q 39 126 39 225 z"},"V":{"x_min":0,"x_max":582,"ha":582,"o":"m 251 -20 l 2 717 l 87 757 l 92 757 l 308 114 l 522 757 l 527 757 l 579 732 l 341 21 l 256 -20 z"},"\"":{"x_min":0,"x_max":365,"ha":365,"o":"m 287 757 l 292 757 l 292 521 l 215 484 l 210 484 l 210 721 z m 149 757 l 154 757 l 154 521 l 78 484 l 73 484 l 73 721 z"},"7":{"x_min":0,"x_max":505,"ha":505,"o":"m 107 -20 l 365 684 l 24 684 l 24 688 l 47 737 l 480 737 l 480 732 l 222 32 l 112 -20 z"},"S":{"x_min":0,"x_max":649,"ha":649,"o":"m 78 225 l 171 269 l 176 269 l 176 194 q 176 135 211 94 q 254 44 325 44 q 395 44 438 94 q 473 134 473 229 q 473 305 445 338 q 406 384 325 384 q 230 384 171 437 q 122 480 122 561 q 122 651 183 700 q 240 747 325 747 q 409 747 467 700 q 527 651 527 565 l 435 521 l 430 521 l 430 583 q 430 639 398 667 q 367 693 325 693 q 277 693 249 664 q 220 634 220 560 q 220 495 242 470 q 271 438 325 438 q 448 438 508 382 q 571 324 571 230 q 571 131 505 61 q 438 -10 325 -10 q 211 -10 144 61 q 78 131 78 225 z"},"}":{"x_min":0,"x_max":403,"ha":403,"o":"m 24 -117 l 24 -63 q 96 -63 138 -13 q 173 28 173 93 l 173 645 q 173 709 138 750 q 96 800 24 801 l 24 854 q 136 854 205 784 q 271 716 271 610 l 271 413 l 378 413 l 378 408 l 339 324 l 271 324 l 271 127 q 271 21 205 -46 q 136 -117 24 -117 z"},"Z":{"x_min":0,"x_max":619,"ha":619,"o":"m 73 0 l 73 5 l 406 684 l 78 684 l 78 688 l 101 737 l 541 737 l 541 732 l 207 54 l 545 54 l 545 49 l 522 0 z"},"x":{"x_min":0,"x_max":486,"ha":486,"o":"m 90 -20 l 39 5 l 196 251 l 39 516 l 125 557 l 129 557 l 255 344 l 391 557 l 396 557 l 447 532 l 290 286 l 447 21 l 362 -20 l 357 -20 l 231 193 l 95 -20 z"},")":{"x_min":0,"x_max":369,"ha":369,"o":"m 24 -117 l 24 -63 q 96 -63 138 -13 q 173 28 173 93 l 173 645 q 173 709 138 750 q 96 800 24 801 l 24 854 q 136 854 205 784 q 271 716 271 610 l 271 127 q 271 21 205 -46 q 136 -117 24 -117 z"},"&":{"x_min":0,"x_max":822,"ha":822,"o":"m 176 222 q 176 161 211 119 q 250 72 322 72 q 374 72 485 209 l 332 394 q 273 393 226 354 q 176 312 176 222 z m 327 -20 q 208 -20 135 60 q 78 123 78 229 q 78 325 150 391 q 180 418 208 428 q 122 470 122 555 q 122 651 183 700 q 240 747 325 747 q 411 747 467 700 q 527 649 527 555 l 435 511 l 430 511 l 430 583 q 430 639 398 667 q 368 693 325 693 q 277 693 249 664 q 220 634 220 555 q 220 511 242 487 q 272 455 319 451 q 366 447 407 447 l 555 271 l 703 421 l 708 421 l 759 396 l 590 229 l 764 21 l 679 -19 l 674 -19 l 521 167 z"},"_":{"x_min":0,"x_max":593,"ha":593,"o":"m 73 -200 l 73 -195 l 113 -111 l 520 -111 l 520 -116 l 480 -200 z"},"v":{"x_min":0,"x_max":506,"ha":506,"o":"m 213 -20 l 24 517 l 109 557 l 114 557 l 271 107 l 427 557 l 432 557 l 482 533 l 302 21 l 218 -20 z"},"O":{"x_min":0,"x_max":688,"ha":688,"o":"m 195 200 q 195 135 230 94 q 274 44 344 44 q 415 44 458 94 q 493 135 493 200 l 493 537 q 493 603 458 643 q 415 693 344 693 q 274 693 230 643 q 195 603 195 537 z m 98 234 l 98 503 q 98 609 164 676 q 233 747 344 747 q 456 747 525 676 q 591 609 591 503 l 591 234 q 591 128 525 61 q 456 -10 344 -10 q 233 -10 164 61 q 98 128 98 234 z"},"(":{"x_min":0,"x_max":369,"ha":369,"o":"m 344 -117 q 233 -117 164 -46 q 98 21 98 127 l 98 610 q 98 716 164 784 q 233 854 344 854 l 344 801 q 273 800 230 750 q 195 709 195 645 l 195 93 q 195 28 230 -13 q 273 -63 344 -63 z"},"C":{"x_min":0,"x_max":688,"ha":688,"o":"m 591 269 l 591 234 q 591 128 525 61 q 456 -10 344 -10 q 233 -10 164 61 q 98 128 98 234 l 98 503 q 98 609 164 676 q 233 747 344 747 q 459 747 525 676 q 591 605 591 513 l 498 469 l 493 469 l 493 537 q 493 603 458 643 q 415 693 344 693 q 274 693 230 643 q 195 603 195 537 l 195 200 q 195 135 230 94 q 274 44 344 44 q 415 44 458 94 q 493 135 493 225 l 586 269 z"},"W":{"x_min":0,"x_max":1084,"ha":1084,"o":"m 98 713 l 190 757 l 195 757 l 195 200 q 195 135 230 94 q 274 44 344 44 q 415 44 458 94 q 493 135 493 200 l 493 713 l 586 757 l 591 757 l 591 200 q 591 135 626 94 q 669 44 740 44 q 810 44 854 94 q 889 135 889 200 l 889 713 l 981 757 l 986 757 l 986 234 q 986 129 920 61 q 851 -10 740 -10 q 639 -10 568 61 q 551 79 542 95 q 531 78 515 62 q 441 -10 344 -10 q 235 -10 164 61 q 98 126 98 234 z"},"A":{"x_min":0,"x_max":688,"ha":688,"o":"m 98 -20 l 98 503 q 98 608 164 676 q 233 747 344 747 q 454 747 525 676 q 591 611 591 503 l 591 24 l 498 -20 l 493 -20 l 493 342 l 195 342 l 195 24 l 103 -20 z m 195 396 l 493 396 l 493 537 q 493 603 458 643 q 414 693 344 693 q 274 693 230 643 q 195 602 195 537 z"},"f":{"x_min":0,"x_max":415,"ha":415,"o":"m 98 -20 l 98 415 l 24 415 l 24 420 l 47 469 l 98 469 l 98 552 q 98 632 158 692 q 215 747 300 747 l 366 747 l 366 742 l 343 693 l 300 693 q 257 693 226 667 q 195 642 195 585 l 195 469 l 366 469 l 366 464 l 343 415 l 195 415 l 195 24 l 103 -20 z"},"Q":{"x_min":0,"x_max":688,"ha":688,"o":"m 568 21 l 482 -20 l 477 -20 l 455 12 q 406 -10 344 -10 q 233 -10 164 61 q 98 128 98 234 l 98 503 q 98 609 164 676 q 233 747 344 747 q 456 747 525 676 q 591 609 591 503 l 591 234 q 591 136 533 70 z m 195 200 q 195 135 230 94 q 274 44 344 44 q 387 44 420 62 l 308 222 l 394 263 l 399 263 l 484 141 q 493 167 493 200 l 493 537 q 493 603 458 643 q 415 693 344 693 q 274 693 230 643 q 195 603 195 537 z"},"w":{"x_min":0,"x_max":859,"ha":859,"o":"m 73 513 l 166 557 l 171 557 l 171 152 q 171 96 201 70 q 232 44 276 44 q 320 44 350 70 q 381 96 381 152 l 381 513 l 474 557 l 479 557 l 479 152 q 479 96 509 70 q 540 44 583 44 q 627 44 658 70 q 688 96 688 152 l 688 513 l 781 557 l 786 557 l 786 186 q 786 105 726 45 q 669 -10 583 -10 q 506 -10 449 47 q 438 58 430 72 q 421 58 410 47 q 349 -10 276 -10 q 191 -10 134 45 q 73 104 73 186 z"},"-":{"x_min":0,"x_max":593,"ha":593,"o":"m 73 324 l 73 329 l 113 413 l 520 413 l 520 408 l 480 324 z"},"E":{"x_min":0,"x_max":565,"ha":565,"o":"m 98 0 l 98 713 l 149 737 l 459 737 l 459 732 l 436 684 l 195 684 l 195 396 l 459 396 l 459 391 l 436 342 l 195 342 l 195 54 l 541 54 l 541 49 l 518 0 z"},"s":{"x_min":0,"x_max":522,"ha":522,"o":"m 59 172 l 151 216 l 156 216 l 156 154 q 156 99 188 71 q 218 44 261 44 q 311 44 339 76 q 368 108 368 170 q 368 226 337 250 q 310 271 261 271 q 167 271 120 309 q 79 342 79 400 q 79 468 141 512 q 189 547 261 547 q 330 547 381 504 q 420 470 429 426 l 336 382 l 332 382 l 332 419 q 332 444 317 463 q 293 493 250 493 q 215 493 193 472 q 172 450 172 403 q 172 354 198 335 q 213 325 261 325 q 364 325 416 282 q 464 242 464 166 q 464 103 408 45 q 354 -10 261 -10 q 177 -10 119 37 q 59 86 59 172 z"},">":{"x_min":0,"x_max":653,"ha":653,"o":"m 580 405 l 580 400 l 540 315 l 122 136 l 98 186 l 98 191 l 473 345 l 98 504 l 98 509 l 138 593 z"},"l":{"x_min":0,"x_max":293,"ha":293,"o":"m 98 -20 l 98 713 l 190 757 l 195 757 l 195 24 l 103 -20 z"},"8":{"x_min":0,"x_max":648,"ha":648,"o":"m 78 230 q 78 326 152 396 q 168 410 189 421 q 122 476 122 553 q 122 650 182 700 q 240 747 324 747 q 409 747 466 700 q 527 651 527 553 q 527 476 459 421 q 480 410 496 396 q 570 326 570 230 q 570 131 505 61 q 438 -10 324 -10 q 210 -10 144 61 q 78 131 78 230 z m 438 94 q 473 134 473 229 q 473 304 444 337 q 405 383 324 383 q 243 383 204 337 q 176 304 176 229 q 176 134 210 94 q 254 44 324 44 q 394 44 438 94 z m 219 560 q 219 494 241 469 q 271 437 324 437 q 378 437 407 469 q 429 494 429 560 q 429 634 400 664 q 372 693 324 693 q 277 693 248 664 q 219 634 219 560 z"},"\\":{"x_min":0,"x_max":476,"ha":476,"o":"m 396 -68 l 5 772 l 74 806 l 79 806 l 471 -35 l 401 -68 z"},"e":{"x_min":0,"x_max":552,"ha":552,"o":"m 479 216 l 479 186 q 479 105 418 45 q 361 -10 276 -10 q 191 -10 134 45 q 73 104 73 186 l 73 352 q 73 433 134 492 q 190 547 276 547 q 359 547 418 492 q 479 435 479 366 l 174 120 q 181 88 201 70 q 232 44 276 44 q 320 44 350 70 q 381 97 381 172 l 474 216 z m 171 195 l 381 365 l 381 385 q 381 440 351 467 q 320 493 276 493 q 232 493 201 467 q 171 441 171 385 z"},"b":{"x_min":0,"x_max":576,"ha":576,"o":"m 195 152 q 195 96 226 70 q 256 44 300 44 q 344 44 375 70 q 405 96 405 152 l 405 385 q 405 441 375 467 q 344 493 300 493 q 256 493 226 467 q 195 441 195 385 z m 98 186 l 98 713 l 190 757 l 195 757 l 195 505 q 232 547 300 547 q 385 547 442 492 q 503 433 503 352 l 503 186 q 503 105 442 45 q 386 -10 300 -10 q 216 -10 158 45 q 98 104 98 186 z"},"m":{"x_min":0,"x_max":859,"ha":859,"o":"m 73 -20 l 73 352 q 73 432 134 492 q 190 547 276 547 q 354 547 410 490 q 421 479 430 465 q 438 479 449 490 q 510 547 583 547 q 668 547 726 492 q 786 433 786 352 l 786 24 l 693 -20 l 688 -20 l 688 385 q 688 441 658 467 q 627 493 583 493 q 540 493 509 467 q 479 441 479 385 l 479 24 l 386 -20 l 381 -20 l 381 385 q 381 441 350 467 q 320 493 276 493 q 232 493 201 467 q 171 441 171 385 l 171 24 l 78 -20 z"},"#":{"x_min":0,"x_max":668,"ha":668,"o":"m 224 108 l 219 108 l 219 254 l 73 254 l 73 259 l 113 343 l 219 343 l 219 396 l 73 396 l 73 400 l 113 484 l 219 484 l 219 590 l 303 630 l 308 630 l 308 484 l 360 484 l 360 590 l 444 630 l 449 630 l 449 484 l 595 484 l 595 479 l 555 396 l 449 396 l 449 343 l 595 343 l 595 338 l 555 254 l 449 254 l 449 148 l 365 108 l 360 108 l 360 254 l 308 254 l 308 148 z m 308 343 l 360 343 l 360 396 l 308 396 z"},",":{"x_min":0,"x_max":297,"ha":297,"o":"m 166 136 l 171 136 q 224 83 224 17 q 224 -77 104 -140 l 83 -115 q 139 -59 139 -10 q 139 49 73 92 z"},"n":{"x_min":0,"x_max":552,"ha":552,"o":"m 73 -20 l 73 352 q 73 432 134 492 q 190 547 276 547 q 360 547 418 492 q 479 433 479 352 l 479 24 l 386 -20 l 381 -20 l 381 385 q 381 441 350 467 q 320 493 276 493 q 232 493 201 467 q 171 441 171 385 l 171 24 l 78 -20 z"},"h":{"x_min":0,"x_max":576,"ha":576,"o":"m 98 -20 l 98 713 l 190 757 l 195 757 l 195 505 q 232 547 300 547 q 385 547 442 492 q 503 433 503 352 l 503 24 l 410 -20 l 405 -20 l 405 385 q 405 441 375 467 q 344 493 300 493 q 256 493 226 467 q 195 441 195 385 l 195 24 l 103 -20 z"},"z":{"x_min":0,"x_max":514,"ha":514,"o":"m 49 0 l 49 5 l 321 483 l 54 483 l 54 488 l 77 537 l 460 537 l 460 532 l 189 54 l 465 54 l 465 49 l 442 0 z"},"B":{"x_min":0,"x_max":669,"ha":669,"o":"m 195 54 l 334 54 q 408 54 452 100 q 483 134 483 223 q 483 295 450 335 q 412 380 334 380 l 195 380 z m 195 434 l 334 434 q 383 434 413 466 q 439 494 439 558 q 439 631 408 659 q 379 684 334 684 l 195 684 z m 98 0 l 98 713 l 149 737 l 334 737 q 417 737 472 692 q 537 640 537 557 q 537 473 462 417 q 486 407 510 387 q 581 322 581 226 q 581 129 519 67 q 452 0 334 0 z"},"K":{"x_min":0,"x_max":664,"ha":664,"o":"m 98 -20 l 98 713 l 190 757 l 195 757 l 195 389 l 510 757 l 515 757 l 572 728 l 310 426 q 443 426 510 361 q 576 297 576 188 l 576 24 l 483 -20 l 479 -20 l 479 216 q 479 282 443 322 q 400 373 337 373 q 273 373 230 322 q 195 281 195 216 l 195 24 l 103 -20 z"},"R":{"x_min":0,"x_max":666,"ha":666,"o":"m 98 -20 l 98 713 l 149 737 l 334 737 q 446 737 515 667 q 581 599 581 493 q 581 387 515 320 q 476 280 424 263 l 593 21 l 507 -20 l 502 -20 l 314 249 l 195 249 l 195 24 l 103 -20 z m 195 303 l 334 303 q 398 303 448 353 q 483 389 483 493 q 483 593 448 633 q 405 684 334 684 l 195 684 z"},"T":{"x_min":0,"x_max":521,"ha":521,"o":"m 211 -20 l 211 684 l 2 684 l 2 688 l 25 737 l 518 737 l 518 732 l 495 684 l 309 684 l 309 24 l 216 -20 z"},"P":{"x_min":0,"x_max":654,"ha":654,"o":"m 195 303 l 334 303 q 398 303 448 353 q 483 389 483 493 q 483 593 448 633 q 405 684 334 684 l 195 684 z m 98 -20 l 98 713 l 149 737 l 334 737 q 446 737 515 667 q 581 599 581 493 q 581 387 515 320 q 445 249 334 249 l 195 249 l 195 24 l 103 -20 z"},"|":{"x_min":0,"x_max":325,"ha":325,"o":"m 122 -117 l 122 818 l 198 854 l 203 854 l 203 -81 l 127 -117 z"},"t":{"x_min":0,"x_max":373,"ha":373,"o":"m 138 -20 l 138 483 l 12 483 l 12 488 l 35 537 l 138 537 l 138 713 l 230 757 l 235 757 l 235 537 l 361 537 l 361 532 l 338 483 l 235 483 l 235 24 l 143 -20 z"},"M":{"x_min":0,"x_max":1084,"ha":1084,"o":"m 98 -20 l 98 503 q 98 608 164 676 q 233 747 344 747 q 445 747 516 676 q 533 659 542 642 q 553 659 569 675 q 643 747 740 747 q 849 747 920 676 q 986 611 986 503 l 986 24 l 894 -20 l 889 -20 l 889 537 q 889 603 854 643 q 810 693 740 693 q 669 693 626 643 q 591 603 591 537 l 591 24 l 498 -20 l 493 -20 l 493 537 q 493 603 458 643 q 415 693 344 693 q 274 693 230 643 q 195 603 195 537 l 195 24 l 103 -20 z"},"g":{"x_min":0,"x_max":566,"ha":566,"o":"m 171 152 q 171 96 201 70 q 232 44 276 44 q 320 44 350 70 q 381 96 381 152 l 381 385 q 381 441 350 467 q 320 493 276 493 q 232 493 201 467 q 171 441 171 385 z m 73 186 l 73 352 q 73 432 134 492 q 190 547 276 547 q 361 547 418 492 q 479 433 479 352 l 479 -15 q 479 -95 418 -155 q 361 -210 276 -210 l 125 -210 l 125 -205 l 149 -156 l 276 -156 q 320 -156 351 -130 q 381 -104 381 -48 l 381 32 q 344 -10 276 -10 q 191 -10 134 45 q 73 104 73 186 z"},"y":{"x_min":0,"x_max":576,"ha":576,"o":"m 73 186 l 73 513 l 166 557 l 171 557 l 171 152 q 171 96 201 70 q 232 44 276 44 q 320 44 350 70 q 381 96 381 152 l 381 513 l 474 557 l 479 557 l 479 -15 q 479 -95 418 -155 q 361 -210 276 -210 l 125 -210 l 125 -205 l 149 -156 l 276 -156 q 320 -156 351 -130 q 381 -104 381 -48 l 381 32 q 345 -10 276 -10 q 192 -10 134 45 q 73 103 73 186 z"},"@":{"x_min":0,"x_max":669,"ha":669,"o":"m 483 273 q 399 272 368 246 q 336 219 336 155 q 336 89 368 61 q 398 34 483 34 z m 488 -20 l 441 -20 q 345 -13 298 24 q 239 72 239 146 q 239 232 299 280 q 351 320 441 327 l 483 327 q 483 404 448 443 q 402 493 334 493 q 264 493 221 443 q 186 403 186 337 l 186 0 q 186 -66 221 -106 q 264 -156 334 -156 l 334 -210 q 223 -210 154 -139 q 88 -72 88 34 l 88 303 q 88 409 154 476 q 223 547 334 547 q 446 547 515 476 q 581 409 581 303 l 581 24 z"},"p":{"x_min":0,"x_max":576,"ha":576,"o":"m 195 152 q 195 96 226 70 q 256 44 300 44 q 344 44 375 70 q 405 96 405 152 l 405 385 q 405 441 375 467 q 344 493 300 493 q 256 493 226 467 q 195 441 195 385 z m 503 352 l 503 186 q 503 105 442 45 q 386 -10 300 -10 q 236 -10 195 32 l 195 -176 l 103 -220 l 98 -220 l 98 352 q 98 432 158 492 q 215 547 300 547 q 385 547 442 492 q 503 433 503 352 z"},"X":{"x_min":0,"x_max":624,"ha":624,"o":"m 105 -20 l 100 -20 l 49 5 l 266 351 l 49 716 l 134 757 l 139 757 l 324 445 l 519 757 l 524 757 l 575 732 l 359 386 l 575 21 l 490 -20 l 485 -20 l 300 292 z"},"*":{"x_min":0,"x_max":578,"ha":578,"o":"m 333 757 l 333 601 l 425 664 l 502 611 l 504 607 l 368 534 l 504 460 l 502 457 l 425 403 l 333 466 l 333 350 l 249 311 l 244 311 l 244 466 l 152 403 l 76 457 l 73 460 l 209 534 l 73 607 l 76 611 l 152 664 l 244 601 l 244 717 l 328 757 z"},"Y":{"x_min":0,"x_max":640,"ha":640,"o":"m 271 -20 l 271 236 q 194 249 139 303 q 73 368 73 477 l 73 713 l 166 757 l 171 757 l 171 446 q 171 381 206 340 q 250 290 320 290 q 394 290 434 340 q 469 385 469 446 l 469 713 l 562 757 l 566 757 l 566 477 q 566 371 500 303 q 447 249 369 236 l 369 24 l 276 -20 z"},"c":{"x_min":0,"x_max":552,"ha":552,"o":"m 479 216 l 479 186 q 479 105 418 45 q 361 -10 276 -10 q 191 -10 134 45 q 73 104 73 186 l 73 352 q 73 433 134 492 q 190 547 276 547 q 359 547 418 492 q 479 435 479 366 l 479 365 l 386 321 l 381 321 l 381 385 q 381 440 351 467 q 320 493 276 493 q 232 493 201 467 q 171 441 171 385 l 171 152 q 171 96 201 70 q 232 44 276 44 q 320 44 350 70 q 381 97 381 172 l 474 216 z"},"/":{"x_min":0,"x_max":476,"ha":476,"o":"m 74 -68 l 5 -35 l 396 806 l 401 806 l 471 772 l 79 -68 z"},"[":{"x_min":0,"x_max":422,"ha":422,"o":"m 98 -117 l 98 811 l 190 854 l 397 854 l 397 850 l 375 801 l 195 801 l 195 -63 l 397 -63 l 397 -68 l 375 -117 z"},"6":{"x_min":0,"x_max":688,"ha":688,"o":"m 578 546 l 488 503 l 483 503 q 483 602 448 643 q 404 693 344 693 q 273 693 230 643 q 195 604 195 537 l 195 412 q 259 470 344 470 q 458 470 525 399 q 591 329 591 230 q 591 131 525 61 q 458 -10 344 -10 q 230 -10 164 61 q 98 131 98 229 l 98 503 q 98 606 164 676 q 230 747 344 747 q 452 747 515 681 q 578 616 578 546 z m 230 366 q 195 326 195 229 q 195 136 230 94 q 273 44 344 44 q 413 44 458 94 q 493 134 493 229 q 493 325 458 366 q 415 416 344 416 q 273 416 230 366 z"},"r":{"x_min":0,"x_max":352,"ha":352,"o":"m 73 -20 l 73 352 q 73 432 134 492 q 190 547 276 547 l 342 547 l 342 542 l 318 493 l 276 493 q 232 493 201 467 q 171 441 171 385 l 171 24 l 78 -20 z"},"2":{"x_min":0,"x_max":651,"ha":651,"o":"m 73 0 l 73 5 l 96 54 l 358 305 q 471 419 471 518 q 471 604 438 643 q 397 693 325 693 q 255 693 211 643 q 177 604 177 529 q 177 476 195 446 l 113 407 l 108 407 q 78 459 78 522 q 78 606 144 676 q 211 747 325 747 q 438 747 505 676 q 571 607 571 506 q 570 396 439 275 l 179 54 l 573 54 l 573 49 l 550 0 z"},"{":{"x_min":0,"x_max":403,"ha":403,"o":"m 378 -117 q 267 -117 198 -46 q 132 21 132 127 l 132 324 l 24 324 l 24 329 l 64 413 l 132 413 l 132 610 q 132 716 198 784 q 267 854 378 854 l 378 801 q 307 800 265 750 q 229 709 229 645 l 229 93 q 229 28 265 -13 q 307 -63 378 -63 z"},"9":{"x_min":0,"x_max":688,"ha":688,"o":"m 101 191 l 190 234 l 195 234 q 195 135 231 94 q 275 44 344 44 q 420 44 458 94 q 493 140 493 200 l 493 325 q 432 268 344 268 q 230 268 164 338 q 98 408 98 507 q 98 606 164 676 q 230 747 344 747 q 458 747 525 676 q 591 606 591 508 l 591 234 q 591 131 525 61 q 458 -10 344 -10 q 227 -10 164 56 q 101 122 101 191 z m 344 321 q 414 321 458 372 q 493 412 493 508 q 493 603 458 643 q 415 693 344 693 q 275 693 230 643 q 195 603 195 508 q 195 413 230 372 q 273 321 344 321 z"}," ":{"x_min":0,"x_max":391,"ha":391,"o":""},"I":{"x_min":0,"x_max":293,"ha":293,"o":"m 98 -20 l 98 713 l 190 757 l 195 757 l 195 24 l 103 -20 z"},"H":{"x_min":0,"x_max":679,"ha":679,"o":"m 98 -20 l 98 713 l 190 757 l 195 757 l 195 396 l 483 396 l 483 713 l 576 757 l 581 757 l 581 24 l 488 -20 l 483 -20 l 483 342 l 195 342 l 195 24 l 103 -20 z"},"4":{"x_min":0,"x_max":580,"ha":580,"o":"m 360 -20 l 360 255 l 2 255 l 2 260 l 25 309 l 360 713 l 453 757 l 458 757 l 458 309 l 526 309 l 526 304 l 503 255 l 458 255 l 458 24 l 365 -20 z m 360 309 l 360 638 l 93 309 z"},"~":{"x_min":0,"x_max":556,"ha":556,"o":"m 73 285 q 73 461 189 461 q 254 461 297 412 q 346 355 374 355 q 432 355 432 439 l 477 461 l 482 461 q 482 285 367 285 q 298 285 258 334 q 211 391 181 391 q 123 391 123 306 l 78 285 z"},"D":{"x_min":0,"x_max":679,"ha":679,"o":"m 98 0 l 98 713 l 149 737 l 334 737 q 446 737 515 667 q 581 600 581 493 l 581 244 q 581 138 515 71 q 446 0 334 0 z m 195 54 l 334 54 q 401 54 448 104 q 483 142 483 210 l 483 527 q 483 592 448 633 q 405 684 334 684 l 195 684 z"},"^":{"x_min":0,"x_max":675,"ha":675,"o":"m 377 757 l 602 531 l 517 491 l 512 491 l 329 673 l 128 491 l 124 491 l 73 515 l 288 717 l 372 757 z"},"0":{"x_min":0,"x_max":688,"ha":688,"o":"m 195 200 q 195 135 230 94 q 274 44 344 44 q 415 44 458 94 q 493 135 493 200 l 493 537 q 493 603 458 643 q 415 693 344 693 q 274 693 230 643 q 195 603 195 537 z m 98 234 l 98 503 q 98 609 164 676 q 233 747 344 747 q 456 747 525 676 q 591 609 591 503 l 591 234 q 591 128 525 61 q 456 -10 344 -10 q 233 -10 164 61 q 98 128 98 234 z"},"F":{"x_min":0,"x_max":547,"ha":547,"o":"m 98 -20 l 98 713 l 149 737 l 459 737 l 459 732 l 436 684 l 195 684 l 195 396 l 459 396 l 459 391 l 436 342 l 195 342 l 195 24 l 103 -20 z"},"`":{"x_min":0,"x_max":316,"ha":316,"o":"m 159 757 l 164 757 l 243 588 l 186 562 l 181 562 l 73 716 z"},"k":{"x_min":0,"x_max":576,"ha":576,"o":"m 98 -20 l 98 713 l 190 757 l 195 757 l 195 350 l 427 557 l 432 557 l 484 521 l 316 377 q 385 377 442 322 q 503 263 503 182 l 503 24 l 410 -20 l 405 -20 l 405 215 q 405 271 375 297 q 344 323 300 323 q 255 323 226 297 q 195 270 195 215 l 195 24 l 103 -20 z"},"u":{"x_min":0,"x_max":552,"ha":552,"o":"m 73 513 l 166 557 l 171 557 l 171 152 q 171 96 201 70 q 232 44 276 44 q 320 44 350 70 q 381 96 381 152 l 381 513 l 474 557 l 479 557 l 479 186 q 479 105 418 45 q 361 -10 276 -10 q 191 -10 134 45 q 73 104 73 186 z"},"]":{"x_min":0,"x_max":422,"ha":422,"o":"m 324 854 l 324 -73 l 231 -117 l 24 -117 l 24 -112 l 47 -63 l 227 -63 l 227 801 l 24 801 l 24 806 l 47 854 z"},"U":{"x_min":0,"x_max":688,"ha":688,"o":"m 98 713 l 190 757 l 195 757 l 195 200 q 195 135 230 94 q 274 44 344 44 q 415 44 458 94 q 493 135 493 200 l 493 713 l 586 757 l 591 757 l 591 234 q 591 129 525 61 q 456 -10 344 -10 q 234 -10 164 61 q 98 126 98 234 z"},"o":{"x_min":0,"x_max":552,"ha":552,"o":"m 73 186 l 73 352 q 73 432 134 492 q 190 547 276 547 q 360 547 418 492 q 479 433 479 352 l 479 186 q 479 105 418 45 q 361 -10 276 -10 q 191 -10 134 45 q 73 104 73 186 z m 171 152 q 171 96 201 70 q 232 44 276 44 q 320 44 350 70 q 381 96 381 152 l 381 385 q 381 441 350 467 q 320 493 276 493 q 232 493 201 467 q 171 441 171 385 z"},"N":{"x_min":0,"x_max":688,"ha":688,"o":"m 98 -20 l 98 503 q 98 608 164 676 q 233 747 344 747 q 454 747 525 676 q 591 611 591 503 l 591 24 l 498 -20 l 493 -20 l 493 537 q 493 603 458 643 q 415 693 344 693 q 274 693 230 643 q 195 603 195 537 l 195 24 l 103 -20 z"},"+":{"x_min":0,"x_max":593,"ha":593,"o":"m 341 592 l 341 413 l 520 413 l 520 408 l 480 324 l 341 324 l 341 185 l 257 146 l 252 146 l 252 324 l 73 324 l 73 329 l 113 413 l 252 413 l 252 552 l 336 592 z"},"G":{"x_min":0,"x_max":688,"ha":688,"o":"m 591 396 l 591 234 q 591 128 525 61 q 456 -10 344 -10 q 233 -10 164 61 q 98 128 98 234 l 98 503 q 98 609 164 676 q 233 747 344 747 q 459 747 525 676 q 591 605 591 513 l 498 469 l 493 469 l 493 537 q 493 602 458 643 q 416 693 344 693 q 274 693 230 643 q 195 603 195 537 l 195 200 q 195 135 230 94 q 274 44 344 44 q 415 44 458 94 q 493 135 493 190 l 493 342 l 332 342 l 332 347 l 354 396 z"},"q":{"x_min":0,"x_max":576,"ha":576,"o":"m 171 152 q 171 96 201 70 q 232 44 276 44 q 320 44 350 70 q 381 96 381 152 l 381 385 q 381 441 350 467 q 320 493 276 493 q 232 493 201 467 q 171 441 171 385 z m 479 352 l 479 -176 l 386 -220 l 381 -220 l 381 32 q 344 -10 276 -10 q 191 -10 134 45 q 73 104 73 186 l 73 352 q 73 432 134 492 q 190 547 276 547 q 360 547 418 492 q 479 433 479 352 z"},"d":{"x_min":0,"x_max":576,"ha":576,"o":"m 171 152 q 171 96 201 70 q 232 44 276 44 q 320 44 350 70 q 381 96 381 152 l 381 385 q 381 441 350 467 q 320 493 276 493 q 232 493 201 467 q 171 441 171 385 z m 73 186 l 73 352 q 73 432 134 492 q 190 547 276 547 q 340 547 381 505 l 381 713 l 474 757 l 479 757 l 479 186 q 479 105 418 45 q 361 -10 276 -10 q 191 -10 134 45 q 73 104 73 186 z"},"1":{"x_min":0,"x_max":349,"ha":349,"o":"m 129 -20 l 129 651 l 10 586 l 10 656 l 222 757 l 227 757 l 227 24 l 134 -20 z"},"5":{"x_min":0,"x_max":649,"ha":649,"o":"m 78 234 l 171 278 l 176 278 l 176 200 q 176 136 211 94 q 253 44 325 44 q 395 44 438 94 q 473 134 473 229 q 473 315 438 353 q 391 403 324 403 q 252 403 210 353 l 113 395 l 195 737 l 533 737 l 533 732 l 510 684 l 273 684 l 209 431 q 264 457 324 457 q 435 457 501 399 q 571 339 571 230 q 571 131 505 61 q 438 -10 325 -10 q 211 -10 144 61 q 78 131 78 234 z"}}}
